TITLE ""
FILE "LR_black_phrase_A01.mp3" MP3
  TRACK 01 AUDIO
    TITLE "LR_black_phrase_A01_001"
    INDEX 01 00:00:00
  TRACK 02 AUDIO
    TITLE "LR_black_phrase_A01_002"
    INDEX 01 00:00:08
  TRACK 03 AUDIO
    TITLE "LR_black_phrase_A01_003"
    INDEX 01 00:01:23
  TRACK 04 AUDIO
    TITLE "LR_black_phrase_A01_004"
    INDEX 01 00:01:65
  TRACK 05 AUDIO
    TITLE "LR_black_phrase_A01_005"
    INDEX 01 00:04:32
  TRACK 06 AUDIO
    TITLE "LR_black_phrase_A01_006"
    INDEX 01 00:05:31
  TRACK 07 AUDIO
    TITLE "LR_black_phrase_A01_007"
    INDEX 01 00:07:38
  TRACK 08 AUDIO
    TITLE "LR_black_phrase_A01_008"
    INDEX 01 00:07:75
  TRACK 09 AUDIO
    TITLE "LR_black_phrase_A01_009"
    INDEX 01 00:09:74
  TRACK 10 AUDIO
    TITLE "LR_black_phrase_A01_010"
    INDEX 01 00:10:30
  TRACK 11 AUDIO
    TITLE "LR_black_phrase_A01_011"
    INDEX 01 00:12:29
  TRACK 12 AUDIO
    TITLE "LR_black_phrase_A01_012"
    INDEX 01 00:13:27
  TRACK 13 AUDIO
    TITLE "LR_black_phrase_A01_013"
    INDEX 01 00:14:61
  TRACK 14 AUDIO
    TITLE "LR_black_phrase_A01_014"
    INDEX 01 00:15:26
  TRACK 15 AUDIO
    TITLE "LR_black_phrase_A01_015"
    INDEX 01 00:17:34
  TRACK 16 AUDIO
    TITLE "LR_black_phrase_A01_016"
    INDEX 01 00:18:32
  TRACK 17 AUDIO
    TITLE "LR_black_phrase_A01_017"
    INDEX 01 00:20:27
  TRACK 18 AUDIO
    TITLE "LR_black_phrase_A01_018"
    INDEX 01 00:20:68
  TRACK 19 AUDIO
    TITLE "LR_black_phrase_A01_019"
    INDEX 01 00:23:27
  TRACK 20 AUDIO
    TITLE "LR_black_phrase_A01_020"
    INDEX 01 00:23:54
  TRACK 21 AUDIO
    TITLE "LR_black_phrase_A01_021"
    INDEX 01 00:26:14
  TRACK 22 AUDIO
    TITLE "LR_black_phrase_A01_022"
    INDEX 01 00:27:17
  TRACK 23 AUDIO
    TITLE "LR_black_phrase_A01_023"
    INDEX 01 00:28:54
  TRACK 24 AUDIO
    TITLE "LR_black_phrase_A01_024"
    INDEX 01 00:29:14
  TRACK 25 AUDIO
    TITLE "LR_black_phrase_A01_025"
    INDEX 01 00:31:42
  TRACK 26 AUDIO
    TITLE "LR_black_phrase_A01_026"
    INDEX 01 00:32:40
  TRACK 27 AUDIO
    TITLE "LR_black_phrase_A01_027"
    INDEX 01 00:35:09
  TRACK 28 AUDIO
    TITLE "LR_black_phrase_A01_028"
    INDEX 01 00:35:48
  TRACK 29 AUDIO
    TITLE "LR_black_phrase_A01_029"
    INDEX 01 00:38:34
  TRACK 30 AUDIO
    TITLE "LR_black_phrase_A01_030"
    INDEX 01 00:38:66
  TRACK 31 AUDIO
    TITLE "LR_black_phrase_A01_031"
    INDEX 01 00:41:52
  TRACK 32 AUDIO
    TITLE "LR_black_phrase_A01_032"
    INDEX 01 00:42:60
  TRACK 33 AUDIO
    TITLE "LR_black_phrase_A01_033"
    INDEX 01 00:44:06
  TRACK 34 AUDIO
    TITLE "LR_black_phrase_A01_034"
    INDEX 01 00:44:45
  TRACK 35 AUDIO
    TITLE "LR_black_phrase_A01_035"
    INDEX 01 00:45:62
  TRACK 36 AUDIO
    TITLE "LR_black_phrase_A01_036"
    INDEX 01 00:46:63
  TRACK 37 AUDIO
    TITLE "LR_black_phrase_A01_037"
    INDEX 01 00:48:29
  TRACK 38 AUDIO
    TITLE "LR_black_phrase_A01_038"
    INDEX 01 00:48:64
  TRACK 39 AUDIO
    TITLE "LR_black_phrase_A01_039"
    INDEX 01 00:50:55
  TRACK 40 AUDIO
    TITLE "LR_black_phrase_A01_040"
    INDEX 01 00:51:08
  TRACK 41 AUDIO
    TITLE "LR_black_phrase_A01_041"
    INDEX 01 00:52:72
  TRACK 42 AUDIO
    TITLE "LR_black_phrase_A01_042"
    INDEX 01 00:53:75
  TRACK 43 AUDIO
    TITLE "LR_black_phrase_A01_043"
    INDEX 01 00:55:17
  TRACK 44 AUDIO
    TITLE "LR_black_phrase_A01_044"
    INDEX 01 00:55:56
  TRACK 45 AUDIO
    TITLE "LR_black_phrase_A01_045"
    INDEX 01 00:58:35
  TRACK 46 AUDIO
    TITLE "LR_black_phrase_A01_046"
    INDEX 01 00:59:35
  TRACK 47 AUDIO
    TITLE "LR_black_phrase_A01_047"
    INDEX 01 01:01:32
  TRACK 48 AUDIO
    TITLE "LR_black_phrase_A01_048"
    INDEX 01 01:01:65
  TRACK 49 AUDIO
    TITLE "LR_black_phrase_A01_049"
    INDEX 01 01:04:06
  TRACK 50 AUDIO
    TITLE "LR_black_phrase_A01_050"
    INDEX 01 01:04:30
  TRACK 51 AUDIO
    TITLE "LR_black_phrase_A01_051"
    INDEX 01 01:06:50
  TRACK 52 AUDIO
    TITLE "LR_black_phrase_A01_052"
    INDEX 01 01:07:56
  TRACK 53 AUDIO
    TITLE "LR_black_phrase_A01_053"
    INDEX 01 01:09:04
  TRACK 54 AUDIO
    TITLE "LR_black_phrase_A01_054"
    INDEX 01 01:09:43
  TRACK 55 AUDIO
    TITLE "LR_black_phrase_A01_055"
    INDEX 01 01:12:18
  TRACK 56 AUDIO
    TITLE "LR_black_phrase_A01_056"
    INDEX 01 01:13:17
  TRACK 57 AUDIO
    TITLE "LR_black_phrase_A01_057"
    INDEX 01 01:15:43
  TRACK 58 AUDIO
    TITLE "LR_black_phrase_A01_058"
    INDEX 01 01:16:06
  TRACK 59 AUDIO
    TITLE "LR_black_phrase_A01_059"
    INDEX 01 01:18:38
  TRACK 60 AUDIO
    TITLE "LR_black_phrase_A01_060"
    INDEX 01 01:18:67
  TRACK 61 AUDIO
    TITLE "LR_black_phrase_A01_061"
    INDEX 01 01:21:22
  TRACK 62 AUDIO
    TITLE "LR_black_phrase_A01_062"
    INDEX 01 01:22:26
  TRACK 63 AUDIO
    TITLE "LR_black_phrase_A01_063"
    INDEX 01 01:23:31
  TRACK 64 AUDIO
    TITLE "LR_black_phrase_A01_064"
    INDEX 01 01:23:70
  TRACK 65 AUDIO
    TITLE "LR_black_phrase_A01_065"
    INDEX 01 01:26:08
  TRACK 66 AUDIO
    TITLE "LR_black_phrase_A01_066"
    INDEX 01 01:27:09
  TRACK 67 AUDIO
    TITLE "LR_black_phrase_A01_067"
    INDEX 01 01:29:44
  TRACK 68 AUDIO
    TITLE "LR_black_phrase_A01_068"
    INDEX 01 01:30:08
  TRACK 69 AUDIO
    TITLE "LR_black_phrase_A01_069"
    INDEX 01 01:32:28
  TRACK 70 AUDIO
    TITLE "LR_black_phrase_A01_070"
    INDEX 01 01:32:60
  TRACK 71 AUDIO
    TITLE "LR_black_phrase_A01_071"
    INDEX 01 01:35:07
  TRACK 72 AUDIO
    TITLE "LR_black_phrase_A01_072"
    INDEX 01 01:36:14
  TRACK 73 AUDIO
    TITLE "LR_black_phrase_A01_073"
    INDEX 01 01:37:23
  TRACK 74 AUDIO
    TITLE "LR_black_phrase_A01_074"
    INDEX 01 01:37:61
  TRACK 75 AUDIO
    TITLE "LR_black_phrase_A01_075"
    INDEX 01 01:38:74
  TRACK 76 AUDIO
    TITLE "LR_black_phrase_A01_076"
    INDEX 01 01:39:73
  TRACK 77 AUDIO
    TITLE "LR_black_phrase_A01_077"
    INDEX 01 01:42:23
  TRACK 78 AUDIO
    TITLE "LR_black_phrase_A01_078"
    INDEX 01 01:42:60
  TRACK 79 AUDIO
    TITLE "LR_black_phrase_A01_079"
    INDEX 01 01:45:29
  TRACK 80 AUDIO
    TITLE "LR_black_phrase_A01_080"
    INDEX 01 01:45:58
  TRACK 81 AUDIO
    TITLE "LR_black_phrase_A01_081"
    INDEX 01 01:48:25
  TRACK 82 AUDIO
    TITLE "LR_black_phrase_A01_082"
    INDEX 01 01:49:31
  TRACK 83 AUDIO
    TITLE "LR_black_phrase_A01_083"
    INDEX 01 01:50:40
  TRACK 84 AUDIO
    TITLE "LR_black_phrase_A01_084"
    INDEX 01 01:51:02
  TRACK 85 AUDIO
    TITLE "LR_black_phrase_A01_085"
    INDEX 01 01:52:23
  TRACK 86 AUDIO
    TITLE "LR_black_phrase_A01_086"
    INDEX 01 01:53:22
  TRACK 87 AUDIO
    TITLE "LR_black_phrase_A01_087"
    INDEX 01 01:56:01
  TRACK 88 AUDIO
    TITLE "LR_black_phrase_A01_088"
    INDEX 01 01:56:42
  TRACK 89 AUDIO
    TITLE "LR_black_phrase_A01_089"
    INDEX 01 01:59:45
  TRACK 90 AUDIO
    TITLE "LR_black_phrase_A01_090"
    INDEX 01 01:59:72
  TRACK 91 AUDIO
    TITLE "LR_black_phrase_A01_091"
    INDEX 01 02:02:74
  TRACK 92 AUDIO
    TITLE "LR_black_phrase_A01_092"
    INDEX 01 02:04:03
  TRACK 93 AUDIO
    TITLE "LR_black_phrase_A01_093"
    INDEX 01 02:05:22
  TRACK 94 AUDIO
    TITLE "LR_black_phrase_A01_094"
    INDEX 01 02:05:61
  TRACK 95 AUDIO
    TITLE "LR_black_phrase_A01_095"
    INDEX 01 02:06:64
  TRACK 96 AUDIO
    TITLE "LR_black_phrase_A01_096"
    INDEX 01 02:07:62
  TRACK 97 AUDIO
    TITLE "LR_black_phrase_A01_097"
    INDEX 01 02:09:22
  TRACK 98 AUDIO
    TITLE "LR_black_phrase_A01_098"
    INDEX 01 02:09:49
  TRACK 99 AUDIO
    TITLE "LR_black_phrase_A01_099"
    INDEX 01 02:11:42
  TRACK 100 AUDIO
    TITLE "LR_black_phrase_A01_100"
    INDEX 01 02:11:69
  TRACK 101 AUDIO
    TITLE "LR_black_phrase_A01_101"
    INDEX 01 02:13:62
  TRACK 102 AUDIO
    TITLE "LR_black_phrase_A01_102"
    INDEX 01 02:14:72
  TRACK 103 AUDIO
    TITLE "LR_black_phrase_A01_103"
    INDEX 01 02:16:20
  TRACK 104 AUDIO
    TITLE "LR_black_phrase_A01_104"
    INDEX 01 02:16:61
  TRACK 105 AUDIO
    TITLE "LR_black_phrase_A01_105"
    INDEX 01 02:18:40
  TRACK 106 AUDIO
    TITLE "LR_black_phrase_A01_106"
    INDEX 01 02:19:40
  TRACK 107 AUDIO
    TITLE "LR_black_phrase_A01_107"
    INDEX 01 02:21:11
  TRACK 108 AUDIO
    TITLE "LR_black_phrase_A01_108"
    INDEX 01 02:21:50
  TRACK 109 AUDIO
    TITLE "LR_black_phrase_A01_109"
    INDEX 01 02:23:65
  TRACK 110 AUDIO
    TITLE "LR_black_phrase_A01_110"
    INDEX 01 02:24:19
  TRACK 111 AUDIO
    TITLE "LR_black_phrase_A01_111"
    INDEX 01 02:26:34
  TRACK 112 AUDIO
    TITLE "LR_black_phrase_A01_112"
    INDEX 01 02:27:39
  TRACK 113 AUDIO
    TITLE "LR_black_phrase_A01_113"
    INDEX 01 02:28:70
  TRACK 114 AUDIO
    TITLE "LR_black_phrase_A01_114"
    INDEX 01 02:29:34
  TRACK 115 AUDIO
    TITLE "LR_black_phrase_A01_115"
    INDEX 01 02:31:39
  TRACK 116 AUDIO
    TITLE "LR_black_phrase_A01_116"
    INDEX 01 02:32:42
  TRACK 117 AUDIO
    TITLE "LR_black_phrase_A01_117"
    INDEX 01 02:34:55
  TRACK 118 AUDIO
    TITLE "LR_black_phrase_A01_118"
    INDEX 01 02:35:19
  TRACK 119 AUDIO
    TITLE "LR_black_phrase_A01_119"
    INDEX 01 02:38:09
  TRACK 120 AUDIO
    TITLE "LR_black_phrase_A01_120"
    INDEX 01 02:38:39
  TRACK 121 AUDIO
    TITLE "LR_black_phrase_A01_121"
    INDEX 01 02:41:29
  TRACK 122 AUDIO
    TITLE "LR_black_phrase_A01_122"
    INDEX 01 02:42:33
  TRACK 123 AUDIO
    TITLE "LR_black_phrase_A01_123"
    INDEX 01 02:43:58
  TRACK 124 AUDIO
    TITLE "LR_black_phrase_A01_124"
    INDEX 01 02:44:20
  TRACK 125 AUDIO
    TITLE "LR_black_phrase_A01_125"
    INDEX 01 02:46:31
  TRACK 126 AUDIO
    TITLE "LR_black_phrase_A01_126"
    INDEX 01 02:47:28
  TRACK 127 AUDIO
    TITLE "LR_black_phrase_A01_127"
    INDEX 01 02:49:48
  TRACK 128 AUDIO
    TITLE "LR_black_phrase_A01_128"
    INDEX 01 02:50:07
  TRACK 129 AUDIO
    TITLE "LR_black_phrase_A01_129"
    INDEX 01 02:52:12
  TRACK 130 AUDIO
    TITLE "LR_black_phrase_A01_130"
    INDEX 01 02:52:35
  TRACK 131 AUDIO
    TITLE "LR_black_phrase_A01_131"
    INDEX 01 02:54:42
  TRACK 132 AUDIO
    TITLE "LR_black_phrase_A01_132"
    INDEX 01 02:55:49
  TRACK 133 AUDIO
    TITLE "LR_black_phrase_A01_133"
    INDEX 01 02:56:74
  TRACK 134 AUDIO
    TITLE "LR_black_phrase_A01_134"
    INDEX 01 02:57:38
  TRACK 135 AUDIO
    TITLE "LR_black_phrase_A01_135"
    INDEX 01 02:58:73
  TRACK 136 AUDIO
    TITLE "LR_black_phrase_A01_136"
    INDEX 01 02:59:74
  TRACK 137 AUDIO
    TITLE "LR_black_phrase_A01_137"
    INDEX 01 03:02:06
  TRACK 138 AUDIO
    TITLE "LR_black_phrase_A01_138"
    INDEX 01 03:02:41
  TRACK 139 AUDIO
    TITLE "LR_black_phrase_A01_139"
    INDEX 01 03:04:66
  TRACK 140 AUDIO
    TITLE "LR_black_phrase_A01_140"
    INDEX 01 03:05:16
  TRACK 141 AUDIO
    TITLE "LR_black_phrase_A01_141"
    INDEX 01 03:07:40
  TRACK 142 AUDIO
    TITLE "LR_black_phrase_A01_142"
    INDEX 01 03:08:48
  TRACK 143 AUDIO
    TITLE "LR_black_phrase_A01_143"
    INDEX 01 03:09:63
  TRACK 144 AUDIO
    TITLE "LR_black_phrase_A01_144"
    INDEX 01 03:10:27
  TRACK 145 AUDIO
    TITLE "LR_black_phrase_A01_145"
    INDEX 01 03:12:01
  TRACK 146 AUDIO
    TITLE "LR_black_phrase_A01_146"
    INDEX 01 03:12:73
  TRACK 147 AUDIO
    TITLE "LR_black_phrase_A01_147"
    INDEX 01 03:14:72
  TRACK 148 AUDIO
    TITLE "LR_black_phrase_A01_148"
    INDEX 01 03:15:38
  TRACK 149 AUDIO
    TITLE "LR_black_phrase_A01_149"
    INDEX 01 03:17:45
  TRACK 150 AUDIO
    TITLE "LR_black_phrase_A01_150"
    INDEX 01 03:18:01
  TRACK 151 AUDIO
    TITLE "LR_black_phrase_A01_151"
    INDEX 01 03:20:08
  TRACK 152 AUDIO
    TITLE "LR_black_phrase_A01_152"
    INDEX 01 03:21:13
  TRACK 153 AUDIO
    TITLE "LR_black_phrase_A01_153"
    INDEX 01 03:22:32
  TRACK 154 AUDIO
    TITLE "LR_black_phrase_A01_154"
    INDEX 01 03:22:71
  TRACK 155 AUDIO
    TITLE "LR_black_phrase_A01_155"
    INDEX 01 03:24:31
  TRACK 156 AUDIO
    TITLE "LR_black_phrase_A01_156"
    INDEX 01 03:25:31
  TRACK 157 AUDIO
    TITLE "LR_black_phrase_A01_157"
    INDEX 01 03:27:75
  TRACK 158 AUDIO
    TITLE "LR_black_phrase_A01_158"
    INDEX 01 03:28:39
  TRACK 159 AUDIO
    TITLE "LR_black_phrase_A01_159"
    INDEX 01 03:31:23
  TRACK 160 AUDIO
    TITLE "LR_black_phrase_A01_160"
    INDEX 01 03:31:55
  TRACK 161 AUDIO
    TITLE "LR_black_phrase_A01_161"
    INDEX 01 03:34:37
  TRACK 162 AUDIO
    TITLE "LR_black_phrase_A01_162"
    INDEX 01 03:35:45
  TRACK 163 AUDIO
    TITLE "LR_black_phrase_A01_163"
    INDEX 01 03:36:68
  TRACK 164 AUDIO
    TITLE "LR_black_phrase_A01_164"
    INDEX 01 03:37:26
  TRACK 165 AUDIO
    TITLE "LR_black_phrase_A01_165"
    INDEX 01 03:39:17
  TRACK 166 AUDIO
    TITLE "LR_black_phrase_A01_166"
    INDEX 01 03:40:14
  TRACK 167 AUDIO
    TITLE "LR_black_phrase_A01_167"
    INDEX 01 03:42:39
  TRACK 168 AUDIO
    TITLE "LR_black_phrase_A01_168"
    INDEX 01 03:42:70
  TRACK 169 AUDIO
    TITLE "LR_black_phrase_A01_169"
    INDEX 01 03:44:61
  TRACK 170 AUDIO
    TITLE "LR_black_phrase_A01_170"
    INDEX 01 03:45:06
  TRACK 171 AUDIO
    TITLE "LR_black_phrase_A01_171"
    INDEX 01 03:46:74
  TRACK 172 AUDIO
    TITLE "LR_black_phrase_A01_172"
    INDEX 01 03:48:02
  TRACK 173 AUDIO
    TITLE "LR_black_phrase_A01_173"
    INDEX 01 03:49:39
  TRACK 174 AUDIO
    TITLE "LR_black_phrase_A01_174"
    INDEX 01 03:49:72
  TRACK 175 AUDIO
    TITLE "LR_black_phrase_A01_175"
    INDEX 01 03:51:73
  TRACK 176 AUDIO
    TITLE "LR_black_phrase_A01_176"
    INDEX 01 03:52:73
  TRACK 177 AUDIO
    TITLE "LR_black_phrase_A01_177"
    INDEX 01 03:54:64
  TRACK 178 AUDIO
    TITLE "LR_black_phrase_A01_178"
    INDEX 01 03:55:24
  TRACK 179 AUDIO
    TITLE "LR_black_phrase_A01_179"
    INDEX 01 03:57:36
  TRACK 180 AUDIO
    TITLE "LR_black_phrase_A01_180"
    INDEX 01 03:57:64
  TRACK 181 AUDIO
    TITLE "LR_black_phrase_A01_181"
    INDEX 01 04:00:01
  TRACK 182 AUDIO
    TITLE "LR_black_phrase_A01_182"
    INDEX 01 04:01:09
  TRACK 183 AUDIO
    TITLE "LR_black_phrase_A01_183"
    INDEX 01 04:02:30
  TRACK 184 AUDIO
    TITLE "LR_black_phrase_A01_184"
    INDEX 01 04:02:71
  TRACK 185 AUDIO
    TITLE "LR_black_phrase_A01_185"
    INDEX 01 04:04:09
  TRACK 186 AUDIO
    TITLE "LR_black_phrase_A01_186"
    INDEX 01 04:05:09
  TRACK 187 AUDIO
    TITLE "LR_black_phrase_A01_187"
    INDEX 01 04:06:61
  TRACK 188 AUDIO
    TITLE "LR_black_phrase_A01_188"
    INDEX 01 04:07:27
  TRACK 189 AUDIO
    TITLE "LR_black_phrase_A01_189"
    INDEX 01 04:09:26
  TRACK 190 AUDIO
    TITLE "LR_black_phrase_A01_190"
    INDEX 01 04:09:55
  TRACK 191 AUDIO
    TITLE "LR_black_phrase_A01_191"
    INDEX 01 04:11:52
  TRACK 192 AUDIO
    TITLE "LR_black_phrase_A01_192"
    INDEX 01 04:12:58
  TRACK 193 AUDIO
    TITLE "LR_black_phrase_A01_193"
    INDEX 01 04:13:73
  TRACK 194 AUDIO
    TITLE "LR_black_phrase_A01_194"
    INDEX 01 04:14:37
  TRACK 195 AUDIO
    TITLE "LR_black_phrase_A01_195"
    INDEX 01 04:16:08
  TRACK 196 AUDIO
    TITLE "LR_black_phrase_A01_196"
    INDEX 01 04:17:08
  TRACK 197 AUDIO
    TITLE "LR_black_phrase_A01_197"
    INDEX 01 04:19:48
  TRACK 198 AUDIO
    TITLE "LR_black_phrase_A01_198"
    INDEX 01 04:20:08
  TRACK 199 AUDIO
    TITLE "LR_black_phrase_A01_199"
    INDEX 01 04:22:19
  TRACK 200 AUDIO
    TITLE "LR_black_phrase_A01_200"
    INDEX 01 04:22:48
  TRACK 201 AUDIO
    TITLE "LR_black_phrase_A01_201"
    INDEX 01 04:24:59
  TRACK 202 AUDIO
    TITLE "LR_black_phrase_A01_202"
    INDEX 01 04:25:64
  TRACK 203 AUDIO
    TITLE "LR_black_phrase_A01_203"
    INDEX 01 04:27:24
  TRACK 204 AUDIO
    TITLE "LR_black_phrase_A01_204"
    INDEX 01 04:27:63
  TRACK 205 AUDIO
    TITLE "LR_black_phrase_A01_205"
    INDEX 01 04:30:24
  TRACK 206 AUDIO
    TITLE "LR_black_phrase_A01_206"
    INDEX 01 04:31:22
  TRACK 207 AUDIO
    TITLE "LR_black_phrase_A01_207"
    INDEX 01 04:33:21
  TRACK 208 AUDIO
    TITLE "LR_black_phrase_A01_208"
    INDEX 01 04:33:60
  TRACK 209 AUDIO
    TITLE "LR_black_phrase_A01_209"
    INDEX 01 04:35:68
  TRACK 210 AUDIO
    TITLE "LR_black_phrase_A01_210"
    INDEX 01 04:36:23
  TRACK 211 AUDIO
    TITLE "LR_black_phrase_A01_211"
    INDEX 01 04:38:31
  TRACK 212 AUDIO
    TITLE "LR_black_phrase_A01_212"
    INDEX 01 04:39:35
  TRACK 213 AUDIO
    TITLE "LR_black_phrase_A01_213"
    INDEX 01 04:40:75
  TRACK 214 AUDIO
    TITLE "LR_black_phrase_A01_214"
    INDEX 01 04:41:46
  TRACK 215 AUDIO
    TITLE "LR_black_phrase_A01_215"
    INDEX 01 04:43:50
  TRACK 216 AUDIO
    TITLE "LR_black_phrase_A01_216"
    INDEX 01 04:44:50
  TRACK 217 AUDIO
    TITLE "LR_black_phrase_A01_217"
    INDEX 01 04:46:58
  TRACK 218 AUDIO
    TITLE "LR_black_phrase_A01_218"
    INDEX 01 04:47:23
  TRACK 219 AUDIO
    TITLE "LR_black_phrase_A01_219"
    INDEX 01 04:50:37
  TRACK 220 AUDIO
    TITLE "LR_black_phrase_A01_220"
    INDEX 01 04:50:70
  TRACK 221 AUDIO
    TITLE "LR_black_phrase_A01_221"
    INDEX 01 04:54:07
  TRACK 222 AUDIO
    TITLE "LR_black_phrase_A01_222"
    INDEX 01 04:55:16
  TRACK 223 AUDIO
    TITLE "LR_black_phrase_A01_223"
    INDEX 01 04:56:24
  TRACK 224 AUDIO
    TITLE "LR_black_phrase_A01_224"
    INDEX 01 04:56:59
  TRACK 225 AUDIO
    TITLE "LR_black_phrase_A01_225"
    INDEX 01 04:58:32
  TRACK 226 AUDIO
    TITLE "LR_black_phrase_A01_226"
    INDEX 01 04:59:34
  TRACK 227 AUDIO
    TITLE "LR_black_phrase_A01_227"
    INDEX 01 05:02:30
  TRACK 228 AUDIO
    TITLE "LR_black_phrase_A01_228"
    INDEX 01 05:02:65
  TRACK 229 AUDIO
    TITLE "LR_black_phrase_A01_229"
    INDEX 01 05:05:01
  TRACK 230 AUDIO
    TITLE "LR_black_phrase_A01_230"
    INDEX 01 05:05:22
  TRACK 231 AUDIO
    TITLE "LR_black_phrase_A01_231"
    INDEX 01 05:07:33
  TRACK 232 AUDIO
    TITLE "LR_black_phrase_A01_232"
    INDEX 01 05:08:37
  TRACK 233 AUDIO
    TITLE "LR_black_phrase_A01_233"
    INDEX 01 05:09:67
  TRACK 234 AUDIO
    TITLE "LR_black_phrase_A01_234"
    INDEX 01 05:10:30
  TRACK 235 AUDIO
    TITLE "LR_black_phrase_A01_235"
    INDEX 01 05:12:52
  TRACK 236 AUDIO
    TITLE "LR_black_phrase_A01_236"
    INDEX 01 05:13:49
  TRACK 237 AUDIO
    TITLE "LR_black_phrase_A01_237"
    INDEX 01 05:14:72
  TRACK 238 AUDIO
    TITLE "LR_black_phrase_A01_238"
    INDEX 01 05:15:37
  TRACK 239 AUDIO
    TITLE "LR_black_phrase_A01_239"
    INDEX 01 05:17:41
  TRACK 240 AUDIO
    TITLE "LR_black_phrase_A01_240"
    INDEX 01 05:17:73
  TRACK 241 AUDIO
    TITLE "LR_black_phrase_A01_241"
    INDEX 01 05:20:01
  TRACK 242 AUDIO
    TITLE "LR_black_phrase_A01_242"
    INDEX 01 05:21:08
  TRACK 243 AUDIO
    TITLE "LR_black_phrase_A01_243"
    INDEX 01 05:22:44
  TRACK 244 AUDIO
    TITLE "LR_black_phrase_A01_244"
    INDEX 01 05:23:05
  TRACK 245 AUDIO
    TITLE "LR_black_phrase_A01_245"
    INDEX 01 05:24:45
  TRACK 246 AUDIO
    TITLE "LR_black_phrase_A01_246"
    INDEX 01 05:25:43
  TRACK 247 AUDIO
    TITLE "LR_black_phrase_A01_247"
    INDEX 01 05:27:44
  TRACK 248 AUDIO
    TITLE "LR_black_phrase_A01_248"
    INDEX 01 05:28:08
  TRACK 249 AUDIO
    TITLE "LR_black_phrase_A01_249"
    INDEX 01 05:30:34
  TRACK 250 AUDIO
    TITLE "LR_black_phrase_A01_250"
    INDEX 01 05:30:64
  TRACK 251 AUDIO
    TITLE "LR_black_phrase_A01_251"
    INDEX 01 05:33:15
  TRACK 252 AUDIO
    TITLE "LR_black_phrase_A01_252"
    INDEX 01 05:34:18
  TRACK 253 AUDIO
    TITLE "LR_black_phrase_A01_253"
    INDEX 01 05:35:45
  TRACK 254 AUDIO
    TITLE "LR_black_phrase_A01_254"
    INDEX 01 05:36:13
  TRACK 255 AUDIO
    TITLE "LR_black_phrase_A01_255"
    INDEX 01 05:38:40
  TRACK 256 AUDIO
    TITLE "LR_black_phrase_A01_256"
    INDEX 01 05:39:41
  TRACK 257 AUDIO
    TITLE "LR_black_phrase_A01_257"
    INDEX 01 05:41:09
  TRACK 258 AUDIO
    TITLE "LR_black_phrase_A01_258"
    INDEX 01 05:41:50
  TRACK 259 AUDIO
    TITLE "LR_black_phrase_A01_259"
    INDEX 01 05:43:33
  TRACK 260 AUDIO
    TITLE "LR_black_phrase_A01_260"
    INDEX 01 05:43:62
  TRACK 261 AUDIO
    TITLE "LR_black_phrase_A01_261"
    INDEX 01 05:45:47
  TRACK 262 AUDIO
    TITLE "LR_black_phrase_A01_262"
    INDEX 01 05:46:53
  TRACK 263 AUDIO
    TITLE "LR_black_phrase_A01_263"
    INDEX 01 05:48:03
  TRACK 264 AUDIO
    TITLE "LR_black_phrase_A01_264"
    INDEX 01 05:48:42
  TRACK 265 AUDIO
    TITLE "LR_black_phrase_A01_265"
    INDEX 01 05:50:06
  TRACK 266 AUDIO
    TITLE "LR_black_phrase_A01_266"
    INDEX 01 05:51:07
  TRACK 267 AUDIO
    TITLE "LR_black_phrase_A01_267"
    INDEX 01 05:54:01
  TRACK 268 AUDIO
    TITLE "LR_black_phrase_A01_268"
    INDEX 01 05:54:41
  TRACK 269 AUDIO
    TITLE "LR_black_phrase_A01_269"
    INDEX 01 05:57:51
  TRACK 270 AUDIO
    TITLE "LR_black_phrase_A01_270"
    INDEX 01 05:58:05
  TRACK 271 AUDIO
    TITLE "LR_black_phrase_A01_271"
    INDEX 01 06:01:15
  TRACK 272 AUDIO
    TITLE "LR_black_phrase_A01_272"
    INDEX 01 06:02:22
  TRACK 273 AUDIO
    TITLE "LR_black_phrase_A01_273"
    INDEX 01 06:03:41
  TRACK 274 AUDIO
    TITLE "LR_black_phrase_A01_274"
    INDEX 01 06:04:06
  TRACK 275 AUDIO
    TITLE "LR_black_phrase_A01_275"
    INDEX 01 06:06:10
  TRACK 276 AUDIO
    TITLE "LR_black_phrase_A01_276"
    INDEX 01 06:07:08
  TRACK 277 AUDIO
    TITLE "LR_black_phrase_A01_277"
    INDEX 01 06:08:64
  TRACK 278 AUDIO
    TITLE "LR_black_phrase_A01_278"
    INDEX 01 06:09:32
  TRACK 279 AUDIO
    TITLE "LR_black_phrase_A01_279"
    INDEX 01 06:11:35
  TRACK 280 AUDIO
    TITLE "LR_black_phrase_A01_280"
    INDEX 01 06:11:66
  TRACK 281 AUDIO
    TITLE "LR_black_phrase_A01_281"
    INDEX 01 06:13:71
  TRACK 282 AUDIO
    TITLE "LR_black_phrase_A01_282"
    INDEX 01 06:15:04
  TRACK 283 AUDIO
    TITLE "LR_black_phrase_A01_283"
    INDEX 01 06:16:19
  TRACK 284 AUDIO
    TITLE "LR_black_phrase_A01_284"
    INDEX 01 06:16:58
  TRACK 285 AUDIO
    TITLE "LR_black_phrase_A01_285"
    INDEX 01 06:18:72
  TRACK 286 AUDIO
    TITLE "LR_black_phrase_A01_286"
    INDEX 01 06:19:70
  TRACK 287 AUDIO
    TITLE "LR_black_phrase_A01_287"
    INDEX 01 06:21:49
  TRACK 288 AUDIO
    TITLE "LR_black_phrase_A01_288"
    INDEX 01 06:22:11
  TRACK 289 AUDIO
    TITLE "LR_black_phrase_A01_289"
    INDEX 01 06:24:24
  TRACK 290 AUDIO
    TITLE "LR_black_phrase_A01_290"
    INDEX 01 06:24:51
  TRACK 291 AUDIO
    TITLE "LR_black_phrase_A01_291"
    INDEX 01 06:26:64
  TRACK 292 AUDIO
    TITLE "LR_black_phrase_A01_292"
    INDEX 01 06:27:63
  TRACK 293 AUDIO
    TITLE "LR_black_phrase_A01_293"
    INDEX 01 06:29:08
  TRACK 294 AUDIO
    TITLE "LR_black_phrase_A01_294"
    INDEX 01 06:29:45
  TRACK 295 AUDIO
    TITLE "LR_black_phrase_A01_295"
    INDEX 01 06:32:16
  TRACK 296 AUDIO
    TITLE "LR_black_phrase_A01_296"
    INDEX 01 06:33:15
  TRACK 297 AUDIO
    TITLE "LR_black_phrase_A01_297"
    INDEX 01 06:35:75
  TRACK 298 AUDIO
    TITLE "LR_black_phrase_A01_298"
    INDEX 01 06:36:35
  TRACK 299 AUDIO
    TITLE "LR_black_phrase_A01_299"
    INDEX 01 06:38:55
  TRACK 300 AUDIO
    TITLE "LR_black_phrase_A01_300"
    INDEX 01 06:39:08
  TRACK 301 AUDIO
    TITLE "LR_black_phrase_A01_301"
    INDEX 01 06:41:26
